<svg width="338" height="119" viewBox="0 0 338 119" fill="none" xmlns="http://www.w3.org/2000/svg">
<path d="M21.4444 72.2349C21.4444 84.5911 31.5429 94.6077 44 94.6077C56.4571 94.6077 66.5556 84.5911 66.5556 72.2349V37.0775C66.5556 35.3123 67.9982 33.8813 69.7778 33.8813C71.5574 33.8813 73 35.3123 73 37.0775V72.2349C73 88.1214 60.0163 101 44 101C27.9837 101 15 88.1214 15 72.2349V53.0581C15 51.2929 16.4426 49.862 18.2222 49.862C20.0018 49.862 21.4444 51.2929 21.4444 53.0581V72.2349Z" fill="url(#paint0_linear)"/>
<path d="M53.6157 72.0531V27.3073V24.1112C53.6157 22.346 55.0508 20.915 56.821 20.915C58.5912 20.915 60.0263 22.346 60.0263 24.1112V27.3073V72.0531C60.0263 80.8789 52.851 88.0337 43.9999 88.0337C35.1489 88.0337 27.9736 80.8789 27.9736 72.0531V27.3073V24.1112C27.9736 22.346 29.4087 20.915 31.1789 20.915C32.9491 20.915 34.3842 22.346 34.3842 24.1112V27.3073V72.0531C34.3842 77.3486 38.6893 81.6414 43.9999 81.6414C49.3106 81.6414 53.6157 77.3486 53.6157 72.0531Z" fill="url(#paint1_linear)"/>
<path d="M40.9475 14.2034C40.9475 12.4342 42.3142 11 44.0001 11C45.6861 11 47.0528 12.4342 47.0528 14.2034V71.8644C47.0528 73.6336 45.6861 75.0678 44.0001 75.0678C42.3142 75.0678 40.9475 73.6336 40.9475 71.8644V14.2034Z" fill="url(#paint2_linear)"/>
<path d="M110.422 35.6875V46.9375H121.828V52.9531H110.422V75.8438C110.422 77.4583 110.839 78.7344 111.672 79.6719C112.505 80.6094 113.781 81.0781 115.5 81.0781C117.062 81.0781 118.365 80.8958 119.406 80.5312C120.448 80.1146 121.359 79.6719 122.141 79.2031V84.4375C121.099 85.2708 119.979 85.9219 118.781 86.3906C117.635 86.9115 116.073 87.1719 114.094 87.1719C110.76 87.1719 108.234 86.1823 106.516 84.2031C104.849 82.1719 104.016 79.4896 104.016 76.1562V52.9531H96.5156V51.0781C99.0677 49.9323 101.203 48.0573 102.922 45.4531C104.641 42.7969 106.151 39.5417 107.453 35.6875H110.422Z" fill="url(#paint3_linear)"/>
<path d="M140.227 46.9375V54.75C141.737 52.1458 143.56 50.0625 145.696 48.5C147.831 46.9375 150.019 46.1562 152.258 46.1562C153.769 46.1562 155.123 46.4167 156.321 46.9375V54.3594C154.654 53.3698 152.987 52.875 151.321 52.875C148.665 52.875 146.503 53.8125 144.836 55.6875C143.222 57.5625 141.685 59.8021 140.227 62.4062V86H133.821V46.9375H140.227Z" fill="url(#paint4_linear)"/>
<path d="M171.126 28.1875C172.636 28.1875 173.886 28.7344 174.876 29.8281C175.918 30.8698 176.438 32.0938 176.438 33.5C176.438 34.8542 175.918 36.0781 174.876 37.1719C173.886 38.2656 172.636 38.8125 171.126 38.8125C169.615 38.8125 168.339 38.2656 167.298 37.1719C166.308 36.0781 165.813 34.8542 165.813 33.5C165.813 32.0938 166.308 30.8698 167.298 29.8281C168.339 28.7344 169.615 28.1875 171.126 28.1875ZM175.11 46.9375V86H168.704V52.9531H162.532V46.9375H175.11Z" fill="url(#paint5_linear)"/>
<path d="M195.697 46.9375V53.1094C196.53 52.0677 197.598 51.026 198.9 49.9844C200.202 48.8906 201.66 47.9792 203.275 47.25C204.941 46.5208 206.66 46.1562 208.431 46.1562C211.087 46.1562 213.509 46.7552 215.697 47.9531C217.884 49.099 219.629 50.8698 220.931 53.2656C222.233 55.6094 222.884 58.5781 222.884 62.1719V86H216.478L216.4 62.7969C216.4 59.4115 215.645 56.8333 214.134 55.0625C212.676 53.2917 210.41 52.4062 207.337 52.4062C205.254 52.4062 203.171 53.1875 201.087 54.75C199.056 56.2604 197.259 58.0312 195.697 60.0625V86H189.29V46.9375H195.697Z" fill="url(#paint6_linear)"/>
<path d="M246.986 46.1562C249.278 46.1562 251.413 46.4948 253.392 47.1719C255.372 47.7969 256.804 48.4479 257.689 49.125V56C256.596 55.1667 255.111 54.3594 253.236 53.5781C251.361 52.7969 249.434 52.4062 247.455 52.4062C245.007 52.4062 243.158 52.9792 241.908 54.125C240.71 55.2708 240.111 56.4688 240.111 57.7188C240.111 58.7083 240.45 59.724 241.127 60.7656C241.856 61.7552 243.106 62.5625 244.877 63.1875L251.439 65.5312C253.991 66.4167 255.892 67.6927 257.142 69.3594C258.392 71.026 259.017 72.9792 259.017 75.2188C259.017 77.4062 258.392 79.4115 257.142 81.2344C255.944 83.0573 254.252 84.5156 252.064 85.6094C249.929 86.651 247.455 87.1719 244.642 87.1719C243.132 87.1719 241.543 86.9635 239.877 86.5469C238.262 86.1823 236.804 85.7396 235.502 85.2188C234.2 84.6458 233.236 84.151 232.611 83.7344V76.8594C233.34 77.3802 234.356 77.9792 235.658 78.6562C237.012 79.2812 238.444 79.8281 239.955 80.2969C241.465 80.7135 242.872 80.9219 244.174 80.9219C246.622 80.9219 248.549 80.375 249.955 79.2812C251.413 78.1875 252.142 76.8333 252.142 75.2188C252.142 73.9688 251.648 72.9792 250.658 72.25C249.721 71.5208 248.34 70.8177 246.517 70.1406L240.736 68.0312C237.715 66.8854 235.71 65.4531 234.721 63.7344C233.731 61.9635 233.236 59.9583 233.236 57.7188C233.236 54.3854 234.486 51.625 236.986 49.4375C239.486 47.25 242.819 46.1562 246.986 46.1562Z" fill="url(#paint7_linear)"/>
<path d="M275.385 28.1875C276.895 28.1875 278.145 28.7344 279.135 29.8281C280.177 30.8698 280.697 32.0938 280.697 33.5C280.697 34.8542 280.177 36.0781 279.135 37.1719C278.145 38.2656 276.895 38.8125 275.385 38.8125C273.875 38.8125 272.599 38.2656 271.557 37.1719C270.567 36.0781 270.072 34.8542 270.072 33.5C270.072 32.0938 270.567 30.8698 271.557 29.8281C272.599 28.7344 273.875 28.1875 275.385 28.1875ZM279.369 46.9375V86H272.963V52.9531H266.791V46.9375H279.369Z" fill="url(#paint8_linear)"/>
<path d="M311.206 46.1562C314.07 46.1562 316.544 46.625 318.628 47.5625C320.711 48.4479 322.143 49.2552 322.924 49.9844V56.4688C321.466 55.375 319.799 54.4375 317.924 53.6562C316.049 52.8229 313.81 52.4062 311.206 52.4062C308.445 52.4062 306.023 53.0833 303.94 54.4375C301.857 55.7396 300.242 57.4844 299.096 59.6719C298.003 61.8073 297.456 64.151 297.456 66.7031C297.456 69.2031 298.003 71.5469 299.096 73.7344C300.242 75.8698 301.857 77.6146 303.94 78.9688C306.023 80.2708 308.445 80.9219 311.206 80.9219C313.81 80.9219 316.049 80.5312 317.924 79.75C319.799 78.9167 321.466 77.9531 322.924 76.8594V83.3438C322.143 84.125 320.711 84.9583 318.628 85.8438C316.544 86.7292 314.07 87.1719 311.206 87.1719C307.247 87.1719 303.732 86.2344 300.659 84.3594C297.586 82.4844 295.164 80.0104 293.393 76.9375C291.674 73.8125 290.815 70.401 290.815 66.7031C290.815 63.0052 291.674 59.5938 293.393 56.4688C295.164 53.3438 297.586 50.8438 300.659 48.9688C303.732 47.0938 307.247 46.1562 311.206 46.1562Z" fill="url(#paint9_linear)"/>
<defs>
<linearGradient id="paint0_linear" x1="73" y1="33.8813" x2="1.26622" y2="55.5641" gradientUnits="userSpaceOnUse">
<stop stop-color="#006BE5"/>
<stop offset="1" stop-color="#1A84FF"/>
</linearGradient>
<linearGradient id="paint1_linear" x1="60.0263" y1="20.915" x2="17.9364" y2="27.9458" gradientUnits="userSpaceOnUse">
<stop stop-color="#006BE5"/>
<stop offset="1" stop-color="#1A84FF"/>
</linearGradient>
<linearGradient id="paint2_linear" x1="47.0528" y1="11" x2="38.8211" y2="11.2744" gradientUnits="userSpaceOnUse">
<stop stop-color="#006BE5"/>
<stop offset="1" stop-color="#1A84FF"/>
</linearGradient>
<linearGradient id="paint3_linear" x1="96.5156" y1="28.1875" x2="103.711" y2="107.148" gradientUnits="userSpaceOnUse">
<stop stop-color="#DBE0E6"/>
<stop offset="1" stop-color="#F9FAFB"/>
</linearGradient>
<linearGradient id="paint4_linear" x1="96.5156" y1="28.1875" x2="103.711" y2="107.148" gradientUnits="userSpaceOnUse">
<stop stop-color="#DBE0E6"/>
<stop offset="1" stop-color="#F9FAFB"/>
</linearGradient>
<linearGradient id="paint5_linear" x1="96.5156" y1="28.1875" x2="103.711" y2="107.148" gradientUnits="userSpaceOnUse">
<stop stop-color="#DBE0E6"/>
<stop offset="1" stop-color="#F9FAFB"/>
</linearGradient>
<linearGradient id="paint6_linear" x1="96.5156" y1="28.1875" x2="103.711" y2="107.148" gradientUnits="userSpaceOnUse">
<stop stop-color="#DBE0E6"/>
<stop offset="1" stop-color="#F9FAFB"/>
</linearGradient>
<linearGradient id="paint7_linear" x1="96.5156" y1="28.1875" x2="103.711" y2="107.148" gradientUnits="userSpaceOnUse">
<stop stop-color="#DBE0E6"/>
<stop offset="1" stop-color="#F9FAFB"/>
</linearGradient>
<linearGradient id="paint8_linear" x1="96.5156" y1="28.1875" x2="103.711" y2="107.148" gradientUnits="userSpaceOnUse">
<stop stop-color="#DBE0E6"/>
<stop offset="1" stop-color="#F9FAFB"/>
</linearGradient>
<linearGradient id="paint9_linear" x1="96.5156" y1="28.1875" x2="103.711" y2="107.148" gradientUnits="userSpaceOnUse">
<stop stop-color="#DBE0E6"/>
<stop offset="1" stop-color="#F9FAFB"/>
</linearGradient>
</defs>
</svg>
