<svg width="338" height="119" viewBox="0 0 338 119" fill="none" xmlns="http://www.w3.org/2000/svg">
<path d="M21.4444 73.2349C21.4444 85.5911 31.5429 95.6077 44 95.6077C56.4571 95.6077 66.5556 85.5911 66.5556 73.2349V38.0775C66.5556 36.3123 67.9982 34.8813 69.7778 34.8813C71.5574 34.8813 73 36.3123 73 38.0775V73.2349C73 89.1214 60.0163 102 44 102C27.9837 102 15 89.1214 15 73.2349V54.0581C15 52.2929 16.4426 50.862 18.2222 50.862C20.0018 50.862 21.4444 52.2929 21.4444 54.0581V73.2349Z" fill="white"/>
<path d="M53.6157 73.0531V28.3073V25.1112C53.6157 23.346 55.0508 21.915 56.821 21.915C58.5912 21.915 60.0263 23.346 60.0263 25.1112V28.3073V73.0531C60.0263 81.8789 52.851 89.0337 43.9999 89.0337C35.1489 89.0337 27.9736 81.8789 27.9736 73.0531V28.3073V25.1112C27.9736 23.346 29.4087 21.915 31.1789 21.915C32.9491 21.915 34.3842 23.346 34.3842 25.1112V28.3073V73.0531C34.3842 78.3486 38.6893 82.6414 43.9999 82.6414C49.3106 82.6414 53.6157 78.3486 53.6157 73.0531Z" fill="white"/>
<path d="M40.9475 15.2034C40.9475 13.4342 42.3142 12 44.0001 12C45.6861 12 47.0528 13.4342 47.0528 15.2034V72.8644C47.0528 74.6336 45.6861 76.0678 44.0001 76.0678C42.3142 76.0678 40.9475 74.6336 40.9475 72.8644V15.2034Z" fill="white"/>
<path d="M110.422 36.6875V47.9375H121.828V53.9531H110.422V76.8438C110.422 78.4583 110.839 79.7344 111.672 80.6719C112.505 81.6094 113.781 82.0781 115.5 82.0781C117.062 82.0781 118.365 81.8958 119.406 81.5312C120.448 81.1146 121.359 80.6719 122.141 80.2031V85.4375C121.099 86.2708 119.979 86.9219 118.781 87.3906C117.635 87.9115 116.073 88.1719 114.094 88.1719C110.76 88.1719 108.234 87.1823 106.516 85.2031C104.849 83.1719 104.016 80.4896 104.016 77.1562V53.9531H96.5156V52.0781C99.0677 50.9323 101.203 49.0573 102.922 46.4531C104.641 43.7969 106.151 40.5417 107.453 36.6875H110.422Z" fill="white"/>
<path d="M140.227 47.9375V55.75C141.737 53.1458 143.56 51.0625 145.696 49.5C147.831 47.9375 150.019 47.1562 152.258 47.1562C153.769 47.1562 155.123 47.4167 156.321 47.9375V55.3594C154.654 54.3698 152.987 53.875 151.321 53.875C148.665 53.875 146.503 54.8125 144.836 56.6875C143.222 58.5625 141.685 60.8021 140.227 63.4062V87H133.821V47.9375H140.227Z" fill="white"/>
<path d="M171.126 29.1875C172.636 29.1875 173.886 29.7344 174.876 30.8281C175.918 31.8698 176.438 33.0938 176.438 34.5C176.438 35.8542 175.918 37.0781 174.876 38.1719C173.886 39.2656 172.636 39.8125 171.126 39.8125C169.615 39.8125 168.339 39.2656 167.298 38.1719C166.308 37.0781 165.813 35.8542 165.813 34.5C165.813 33.0938 166.308 31.8698 167.298 30.8281C168.339 29.7344 169.615 29.1875 171.126 29.1875ZM175.11 47.9375V87H168.704V53.9531H162.532V47.9375H175.11Z" fill="white"/>
<path d="M195.697 47.9375V54.1094C196.53 53.0677 197.598 52.026 198.9 50.9844C200.202 49.8906 201.66 48.9792 203.275 48.25C204.941 47.5208 206.66 47.1562 208.431 47.1562C211.087 47.1562 213.509 47.7552 215.697 48.9531C217.884 50.099 219.629 51.8698 220.931 54.2656C222.233 56.6094 222.884 59.5781 222.884 63.1719V87H216.478L216.4 63.7969C216.4 60.4115 215.645 57.8333 214.134 56.0625C212.676 54.2917 210.41 53.4062 207.337 53.4062C205.254 53.4062 203.171 54.1875 201.087 55.75C199.056 57.2604 197.259 59.0312 195.697 61.0625V87H189.29V47.9375H195.697Z" fill="white"/>
<path d="M246.986 47.1562C249.278 47.1562 251.413 47.4948 253.392 48.1719C255.372 48.7969 256.804 49.4479 257.689 50.125V57C256.596 56.1667 255.111 55.3594 253.236 54.5781C251.361 53.7969 249.434 53.4062 247.455 53.4062C245.007 53.4062 243.158 53.9792 241.908 55.125C240.71 56.2708 240.111 57.4688 240.111 58.7188C240.111 59.7083 240.45 60.724 241.127 61.7656C241.856 62.7552 243.106 63.5625 244.877 64.1875L251.439 66.5312C253.991 67.4167 255.892 68.6927 257.142 70.3594C258.392 72.026 259.017 73.9792 259.017 76.2188C259.017 78.4062 258.392 80.4115 257.142 82.2344C255.944 84.0573 254.252 85.5156 252.064 86.6094C249.929 87.651 247.455 88.1719 244.642 88.1719C243.132 88.1719 241.543 87.9635 239.877 87.5469C238.262 87.1823 236.804 86.7396 235.502 86.2188C234.2 85.6458 233.236 85.151 232.611 84.7344V77.8594C233.34 78.3802 234.356 78.9792 235.658 79.6562C237.012 80.2812 238.444 80.8281 239.955 81.2969C241.465 81.7135 242.872 81.9219 244.174 81.9219C246.622 81.9219 248.549 81.375 249.955 80.2812C251.413 79.1875 252.142 77.8333 252.142 76.2188C252.142 74.9688 251.648 73.9792 250.658 73.25C249.721 72.5208 248.34 71.8177 246.517 71.1406L240.736 69.0312C237.715 67.8854 235.71 66.4531 234.721 64.7344C233.731 62.9635 233.236 60.9583 233.236 58.7188C233.236 55.3854 234.486 52.625 236.986 50.4375C239.486 48.25 242.819 47.1562 246.986 47.1562Z" fill="white"/>
<path d="M275.385 29.1875C276.895 29.1875 278.145 29.7344 279.135 30.8281C280.177 31.8698 280.697 33.0938 280.697 34.5C280.697 35.8542 280.177 37.0781 279.135 38.1719C278.145 39.2656 276.895 39.8125 275.385 39.8125C273.875 39.8125 272.599 39.2656 271.557 38.1719C270.567 37.0781 270.072 35.8542 270.072 34.5C270.072 33.0938 270.567 31.8698 271.557 30.8281C272.599 29.7344 273.875 29.1875 275.385 29.1875ZM279.369 47.9375V87H272.963V53.9531H266.791V47.9375H279.369Z" fill="white"/>
<path d="M311.206 47.1562C314.07 47.1562 316.544 47.625 318.628 48.5625C320.711 49.4479 322.143 50.2552 322.924 50.9844V57.4688C321.466 56.375 319.799 55.4375 317.924 54.6562C316.049 53.8229 313.81 53.4062 311.206 53.4062C308.445 53.4062 306.023 54.0833 303.94 55.4375C301.857 56.7396 300.242 58.4844 299.096 60.6719C298.003 62.8073 297.456 65.151 297.456 67.7031C297.456 70.2031 298.003 72.5469 299.096 74.7344C300.242 76.8698 301.857 78.6146 303.94 79.9688C306.023 81.2708 308.445 81.9219 311.206 81.9219C313.81 81.9219 316.049 81.5312 317.924 80.75C319.799 79.9167 321.466 78.9531 322.924 77.8594V84.3438C322.143 85.125 320.711 85.9583 318.628 86.8438C316.544 87.7292 314.07 88.1719 311.206 88.1719C307.247 88.1719 303.732 87.2344 300.659 85.3594C297.586 83.4844 295.164 81.0104 293.393 77.9375C291.674 74.8125 290.815 71.401 290.815 67.7031C290.815 64.0052 291.674 60.5938 293.393 57.4688C295.164 54.3438 297.586 51.8438 300.659 49.9688C303.732 48.0938 307.247 47.1562 311.206 47.1562Z" fill="white"/>
</svg>
