<svg width="254" height="394" viewBox="0 0 254 394" fill="none" xmlns="http://www.w3.org/2000/svg">
<path d="M28.4814 267.952C28.4814 321.953 72.5896 365.73 127 365.73C181.41 365.73 225.518 321.953 225.518 267.952V114.301C225.518 106.587 231.82 100.333 239.592 100.333C247.365 100.333 253.667 106.587 253.667 114.301V267.952C253.667 337.382 196.956 393.666 127 393.666C57.0438 393.666 0.333252 337.382 0.333252 267.952V184.143C0.333252 176.428 6.63443 170.174 14.4073 170.174C22.1802 170.174 28.4814 176.428 28.4814 184.143V267.952Z" fill="url(#paint0_linear)"/>
<path d="M169 267.158V71.6025V57.6343C169 49.9198 175.268 43.666 183 43.666C190.732 43.666 197 49.9198 197 57.6343V71.6025V267.158C197 305.73 165.66 336.999 127 336.999C88.3401 336.999 57 305.73 57 267.158V71.6025V57.6343C57 49.9198 63.268 43.666 71 43.666C78.732 43.666 85 49.9198 85 57.6343V71.6025V267.158C85 290.301 103.804 309.063 127 309.063C150.196 309.063 169 290.301 169 267.158Z" fill="url(#paint1_linear)"/>
<path d="M113.667 14.333C113.667 6.60102 119.636 0.333008 127 0.333008C134.364 0.333008 140.333 6.60102 140.333 14.333V266.333C140.333 274.065 134.364 280.333 127 280.333C119.636 280.333 113.667 274.065 113.667 266.333V14.333Z" fill="url(#paint2_linear)"/>
<defs>
<linearGradient id="paint0_linear" x1="0.333252" y1="100.333" x2="138.097" y2="440.474" gradientUnits="userSpaceOnUse">
<stop stop-color="#005BC2"/>
<stop offset="1" stop-color="#298CFF"/>
</linearGradient>
<linearGradient id="paint1_linear" x1="57" y1="43.666" x2="245.78" y2="301.249" gradientUnits="userSpaceOnUse">
<stop stop-color="#005BC2"/>
<stop offset="1" stop-color="#298CFF"/>
</linearGradient>
<linearGradient id="paint2_linear" x1="113.667" y1="0.333008" x2="209.468" y2="26.4171" gradientUnits="userSpaceOnUse">
<stop stop-color="#005BC2"/>
<stop offset="1" stop-color="#298CFF"/>
</linearGradient>
</defs>
</svg>
